<svg width="486" height="95" viewBox="0 0 486 95" fill="none" xmlns="http://www.w3.org/2000/svg">
<path d="M321.348 95C321.126 94.9995 320.908 94.9512 320.708 94.8583C320.508 94.7655 320.331 94.6305 320.191 94.463C310.334 82.6419 297.644 77.3371 282.476 78.7072C271.043 79.7368 262.402 84.3693 262.316 84.4158C262.053 84.5558 261.752 84.6152 261.454 84.5864C261.156 84.5576 260.873 84.4418 260.642 84.254C260.411 84.0662 260.242 83.8148 260.157 83.5321C260.072 83.2494 260.075 82.9483 260.166 82.6672L278.284 28.9998C278.408 28.6346 278.672 28.3312 279.02 28.1541C292.255 21.4687 303.321 22.8937 310.285 25.2638C317.836 27.8391 322.214 31.9768 322.397 32.1523C322.54 32.2901 322.654 32.4546 322.731 32.6361C322.809 32.8176 322.849 33.0125 322.849 33.2094V93.5306C322.849 93.8335 322.754 94.129 322.576 94.3765C322.399 94.6241 322.147 94.8116 321.857 94.9133C321.694 94.9716 321.521 95.001 321.348 95ZM286.958 75.5632C292.12 75.5353 297.248 76.38 302.119 78.0602C308.702 80.3584 314.653 84.2487 319.853 89.6402V33.8627C316.686 31.2848 313.067 29.2978 309.173 27.9998C300.061 24.934 290.56 25.7755 280.921 30.501L264.114 80.3246C269.837 77.9196 275.9 76.3908 282.093 75.7915C283.736 75.6393 285.358 75.5632 286.958 75.5632ZM321.348 95C321.176 95.0006 321.006 94.9712 320.844 94.9133C320.554 94.8119 320.303 94.6244 320.125 94.3768C319.948 94.1292 319.852 93.8335 319.853 93.5306V33.2073C319.852 33.0103 319.891 32.8151 319.969 32.6334C320.047 32.4517 320.161 32.2874 320.305 32.1501C320.487 31.9746 324.864 27.837 332.417 25.2617C339.374 22.8916 350.445 21.456 363.679 28.152C364.028 28.3277 364.293 28.6316 364.415 28.9977L382.519 82.6694C382.615 82.951 382.622 83.2548 382.539 83.5406C382.456 83.8264 382.287 84.0808 382.054 84.2702C381.821 84.4596 381.536 84.5751 381.235 84.6014C380.933 84.6278 380.631 84.5638 380.368 84.4179C380.282 84.3714 371.643 79.7389 360.211 78.7093C345.04 77.3434 332.352 82.644 322.494 94.4651C322.354 94.6316 322.18 94.7658 321.981 94.8583C321.783 94.9507 321.567 94.9991 321.348 95ZM322.853 33.8627V89.6466C328.051 84.2551 334.002 80.3648 340.584 78.0665C346.77 75.9057 353.507 75.1424 360.611 75.7979C366.804 76.3969 372.867 77.9256 378.589 80.3309L361.783 30.5073C352.144 25.7818 342.643 24.9404 333.531 28.0061C329.634 29.3009 326.012 31.2858 322.842 33.8627H322.853ZM322.638 94.2854C322.839 93.9504 322.897 93.5514 322.801 93.1743C322.705 92.7973 322.462 92.4726 322.124 92.2704C307.07 83.3903 292.898 82.6355 283.665 83.5574C275.788 84.3418 270.147 86.4117 267.966 87.3272L262.669 82.0943C262.538 81.9296 262.373 81.794 262.185 81.6966C261.997 81.5991 261.789 81.542 261.577 81.529C261.365 81.516 261.152 81.5474 260.953 81.621C260.754 81.6947 260.573 81.809 260.422 81.9564C260.271 82.1039 260.154 82.2811 260.078 82.4763C260.002 82.6716 259.968 82.8805 259.98 83.0893C259.992 83.2981 260.049 83.502 260.147 83.6877C260.245 83.8733 260.382 84.0364 260.549 84.1663L266.57 90.1202C266.792 90.3365 267.077 90.4795 267.385 90.5296C267.693 90.5796 268.01 90.534 268.291 90.3993C268.351 90.3697 274.469 87.4265 283.962 86.4793C292.745 85.604 306.227 86.3356 320.582 94.7907C320.923 94.9886 321.329 95.0465 321.713 94.9519C322.097 94.8573 322.428 94.6179 322.634 94.2854H322.638ZM322.124 94.7907C336.43 86.3652 349.866 85.6146 358.617 86.4667C368.14 87.3969 374.357 90.3697 374.417 90.3993C374.698 90.5359 375.015 90.5825 375.323 90.5324C375.632 90.4823 375.917 90.3381 376.138 90.1202L382.159 84.1663C382.304 84.0309 382.42 83.8685 382.5 83.6884C382.579 83.5084 382.622 83.3144 382.624 83.1181C382.626 82.9217 382.588 82.7269 382.513 82.5451C382.437 82.3633 382.325 82.1983 382.184 82.0598C382.042 81.9213 381.874 81.8121 381.688 81.7387C381.503 81.6652 381.305 81.629 381.105 81.6323C380.905 81.6355 380.708 81.678 380.525 81.7574C380.343 81.8367 380.178 81.9513 380.041 82.0943L374.742 87.3208C372.557 86.4053 366.916 84.3354 359.043 83.551C349.81 82.6292 335.642 83.3946 320.582 92.2641C320.413 92.3631 320.266 92.4939 320.149 92.649C320.031 92.804 319.946 92.9803 319.898 93.1677C319.85 93.3552 319.84 93.5501 319.869 93.7412C319.898 93.9324 319.965 94.1161 320.066 94.2819C320.167 94.4476 320.3 94.5921 320.458 94.7071C320.616 94.8221 320.796 94.9053 320.987 94.952C321.178 94.9986 321.376 95.0079 321.57 94.9791C321.765 94.9503 321.951 94.8841 322.12 94.7843L322.124 94.7907ZM0 49.3289C0 34.9741 3.52909 24.0911 10.5873 16.6798C17.7229 9.18666 26.8679 5.44081 38.0222 5.44222C49.1765 5.44363 58.0404 8.67641 64.614 15.1405C71.2708 21.6089 74.5992 31.9401 74.5992 46.1342C74.5992 60.3282 71.0701 71.0534 64.0119 78.3097C56.9523 85.566 47.527 89.1934 35.7361 89.192C25.5496 89.192 17.2068 86.3137 10.7077 80.5572C7.33991 77.5619 4.69327 73.4221 2.76779 68.1377C0.922597 62.773 0 56.5034 0 49.3289ZM37.6609 6.61989C29.5589 6.61989 22.9008 10.1691 17.6863 17.2675C12.5536 24.3617 9.98727 34.7726 9.98727 48.5001C9.98727 62.2275 12.4339 72.243 17.3272 78.5465C22.2205 84.8556 28.7173 88.0101 36.8178 88.0101C45.0015 88.0101 51.6597 84.4616 56.7924 77.3646C62.0054 70.1886 64.6126 59.8179 64.614 46.2526C64.614 32.6096 62.1273 22.5942 57.1537 16.2062C52.259 9.81813 45.7614 6.62412 37.6609 6.62412V6.61989ZM93.8189 75.1234C93.8189 81.3521 95.5035 85.3341 98.8727 87.0692C100.477 87.8586 102.522 88.2532 105.008 88.2532C110.062 88.2532 114.554 86.3602 118.484 82.5742C122.498 78.7896 124.665 75.2806 124.983 72.0471V29.5728H133.404V80.3161C133.404 82.6038 133.845 84.3784 134.727 85.64C135.691 86.8226 136.653 87.4533 137.615 87.5323L138.94 87.7691H142.669V88.7163H135.329C132.042 88.7163 129.515 88.0066 127.748 86.5872C126.065 85.1664 125.183 83.7462 125.101 82.3268L124.983 80.3161V75.2333C123.538 78.6247 120.971 81.8187 117.282 84.8154C113.591 87.7331 109.54 89.192 105.129 89.192C100.797 89.192 97.2282 88.798 94.421 88.0101C91.6969 87.1432 89.7313 85.9599 88.5241 84.4602C86.4381 82.016 85.395 78.8622 85.395 74.9987V29.5728H93.8189V75.1234ZM171.713 34.6662V32.1755C168.101 33.5935 164.812 36.4704 161.846 40.8061C158.875 45.0657 157.311 49.0878 157.153 52.8725V88.7205H148.729V29.5728H157.153V48.3901C158.435 43.8162 160.882 39.5171 164.493 35.4929C168.102 31.3911 172.192 29.2613 176.764 29.1034H177.246C178.738 29.1284 180.162 29.7223 181.217 30.7598C182.273 31.7972 182.877 33.1971 182.902 34.664C182.922 35.3953 182.783 36.1222 182.492 36.7957C182.202 37.4691 181.767 38.0732 181.218 38.5671C180.173 39.5932 178.849 40.1063 177.246 40.1063C175.643 40.1063 174.32 39.5932 173.276 38.5671C172.234 37.5395 171.713 36.2371 171.713 34.6598V34.6662ZM195.584 6.86727C204.887 6.23579 213.108 5.92006 220.247 5.92006C240.059 5.92006 249.966 12.4265 249.966 25.4393C249.966 30.329 248.522 34.5485 245.634 38.0977C242.745 41.5666 238.133 43.9318 231.798 45.1933C237.895 45.8981 242.708 47.7121 246.237 50.6355C249.765 53.5589 251.53 58.6452 251.531 65.8945C251.531 81.1175 241.624 88.729 221.81 88.729H195.573L195.584 6.86727ZM205.567 87.5323H221.81C228.947 87.5323 234.001 85.7182 236.972 82.09C240.019 78.3844 241.543 72.7462 241.544 65.1756C241.545 57.605 240.021 52.5574 236.972 50.0329C233.922 47.5099 229.39 46.1708 223.376 46.0158H205.567V87.5323ZM220.247 7.0935C215.342 7.10681 210.441 7.38349 205.567 7.9223V44.8339H223.376C234.685 44.3603 240.34 37.9722 240.34 25.6698C240.34 19.6764 238.656 15.1025 235.288 11.9479C231.919 8.71587 226.905 7.09913 220.247 7.09772V7.0935ZM402.523 0V58.9109L428.995 29.5728H430.199L410.586 51.3501L436.455 88.7311H428.033L405.773 56.545L402.523 60.2112V88.7205H394.102V0H402.523ZM479.38 33.7126C478.099 32.6893 476.013 31.8224 473.124 31.112C470.316 30.4072 468.19 30.0549 466.748 30.0549H464.221C459.89 30.1324 456.761 31.2368 454.836 33.368C452.912 35.416 451.949 37.7418 451.948 40.3452C451.946 42.9486 452.789 45.1566 454.475 46.9693C456.245 48.761 458.376 50.1708 460.731 51.1091C463.298 52.0535 466.023 53.1572 468.903 54.4201C471.871 55.6887 474.595 56.9904 477.075 58.3252C479.68 59.6212 481.884 61.5819 483.454 64.0022C485.137 66.4477 485.979 69.5233 485.981 73.229C485.982 76.9347 484.658 80.0892 482.008 82.6926C479.362 85.2946 476.394 87.0298 473.105 87.898C469.691 88.7909 466.171 89.2283 462.638 89.1983C454.455 89.1983 448.318 87.4244 444.227 83.8766L444.95 83.1662C446.554 84.666 448.92 85.888 452.047 86.8324C455.048 87.7483 458.169 88.2269 461.311 88.2532C466.043 88.2532 469.933 86.991 472.983 84.4665C476.112 81.8659 477.676 78.6726 477.675 74.8866C477.675 71.0217 476.512 67.946 474.187 65.6598C471.784 63.2453 468.866 61.3863 465.643 60.2175C462.355 58.8771 459.027 57.5761 455.657 56.3145C452.287 54.9741 449.439 53.16 447.113 50.8723C444.786 48.5057 443.624 45.7853 443.625 42.7111C443.626 39.6369 444.356 37.1505 445.814 35.2518C447.235 33.296 449.26 31.8439 451.589 31.112C455.542 29.7924 459.687 29.1126 463.862 29.0992C470.761 29.0992 476.137 30.3614 479.991 32.8859L479.38 33.7126Z" fill="white"/>
</svg>
